<svg id="Layer_1" data-name="Layer 1" xmlns="http://www.w3.org/2000/svg" viewBox="0 0 792 518.21"><defs><style>.cls-1{fill:#231f20;}.cls-2{fill:#be1e2d;}</style></defs><title>krutch 4 kade</title><path class="cls-1" d="M690.53,464.53A15.61,15.61,0,0,1,676.16,455l-10.56-24.9a15.47,15.47,0,0,1-.11-11.93l1.43-3.52-26.58-62.61-58.46-23.61a63.37,63.37,0,0,1-34.81-34.21L502.64,189.58l11.12-4.73L558.2,289.54a51.3,51.3,0,0,0,28.21,27.72l60.78,24.56a6,6,0,0,1,3.3,3.24L679,412.28a6,6,0,0,1,0,4.62l-2.36,5.85a3.48,3.48,0,0,0,0,2.67l10.57,24.9a3.51,3.51,0,0,0,4.59,1.85L725.17,438a3.51,3.51,0,0,0,1.86-4.59l-10.57-24.89a3.45,3.45,0,0,0-1.91-1.88l-5.84-2.36a6,6,0,0,1-3.3-3.25l-28.53-67.21a6,6,0,0,1,0-4.63l24.56-60.75a51.34,51.34,0,0,0-.35-39.56L650.72,110.34a6,6,0,0,1,3.2-7.93l6-2.52A17,17,0,0,0,646.6,68.62L480.73,139A17,17,0,1,0,494,170.29L622,116a6,6,0,0,1,7.92,3.2l23.12,54.46a6,6,0,0,1-3.2,7.93L559.7,219.82a6,6,0,0,1-7.93-3.2L534.54,176l11.13-4.72,14.87,35,79-33.54-18.4-43.35-122.45,52A29.07,29.07,0,1,1,476,127.91L641.88,57.5A29.06,29.06,0,1,1,664.59,111l-.39.17,48,113A63.35,63.35,0,0,1,712.6,273L689,331.44l26.57,62.61,3.53,1.42a15.5,15.5,0,0,1,8.51,8.36l10.56,24.9a15.6,15.6,0,0,1-8.26,20.43L696.6,463.29A15.34,15.34,0,0,1,690.53,464.53Z"/><path class="cls-1" d="M650.05,313.29a5.54,5.54,0,0,1-2.09-.39L598.65,293a6.45,6.45,0,0,1-1.43-.81l-3.64-1.47a32.67,32.67,0,0,1-17.19-16.06c-.46-1-.84-1.91-1.19-2.8a32.68,32.68,0,0,1,42.38-41.88,32.66,32.66,0,0,1,61.47,21.74c-.33,1.11-.69,2.15-1.1,3.18l-1.47,3.63a5.67,5.67,0,0,1-.39,1.6l-19.93,49.35a6.07,6.07,0,0,1-4.82,3.73A7,7,0,0,1,650.05,313.29Zm-45.38-30.94,42.46,17.17,17.15-42.46a5.73,5.73,0,0,1,.38-1.6l2.08-5.13c.27-.68.5-1.36.71-2.05a20.19,20.19,0,0,0,.52-9v0a20.58,20.58,0,0,0-39.38-4.34l-2.07,5.13a6,6,0,0,1-7.87,3.34l-5.13-2.07a20.58,20.58,0,0,0-27,26.21c.22.57.5,1.24.82,1.92a20.47,20.47,0,0,0,10.78,10l5.14,2.07A6.2,6.2,0,0,1,604.67,282.35Z"/><path class="cls-2" d="M673.93,238.26a26.54,26.54,0,0,1-.69,11.75,27.2,27.2,0,0,1-.9,2.58l-2.07,5.14.22.09-19.94,49.35-.22-.09-.09.22-.13-.05-49.2-19.9.07-.21-5.13-2.08a26.54,26.54,0,0,1-14-13.09c-.36-.79-.69-1.57-1-2.36a26.64,26.64,0,0,1,34.95-33.9l5.14,2.08,2.07-5.14a26.62,26.62,0,0,1,50.94,5.61Z"/><path class="cls-1" d="M650.05,313.29a5.54,5.54,0,0,1-2.09-.39L598.65,293a6.45,6.45,0,0,1-1.43-.81l-3.64-1.47a32.67,32.67,0,0,1-17.19-16.06c-.46-1-.84-1.91-1.19-2.8a32.68,32.68,0,0,1,42.38-41.88,32.66,32.66,0,0,1,61.47,21.74c-.33,1.11-.69,2.15-1.1,3.18l-1.47,3.63a5.67,5.67,0,0,1-.39,1.6l-19.93,49.35a6.07,6.07,0,0,1-4.82,3.73A7,7,0,0,1,650.05,313.29Zm-45.38-30.94,42.46,17.17,17.15-42.46a5.73,5.73,0,0,1,.38-1.6l2.08-5.13c.27-.68.5-1.36.71-2.05a20.19,20.19,0,0,0,.52-9v0a20.58,20.58,0,0,0-39.38-4.34l-2.07,5.13a6,6,0,0,1-7.87,3.34l-5.13-2.07a20.58,20.58,0,0,0-27,26.21c.22.57.5,1.24.82,1.92a20.47,20.47,0,0,0,10.78,10l5.14,2.07A6.2,6.2,0,0,1,604.67,282.35Z"/><path class="cls-1" d="M68.84,207.72A7.78,7.78,0,0,1,61,215.3a7.66,7.66,0,0,1-7.67-7.58V145.23a6,6,0,0,1,6-5.85c3.28,0,5.88,2.66,5.88,6.38a25.35,25.35,0,0,1,18.22-7c15.06,0,26,12.1,26,27s-10.68,27.52-25.19,27.52c-4.52,0-11.23-1.33-15.48-4.39ZM94,165.84c0-8-5.48-13.43-12.32-13.43s-12.88,5.32-12.88,13.43,5.89,14.09,12.88,14.09S94,173.68,94,165.84Z"/><path class="cls-1" d="M148.31,152.41c-9.73.53-11.64,5.85-11.64,12V185a7.78,7.78,0,0,1-7.81,7.58,7.66,7.66,0,0,1-7.67-7.58V145.23a6,6,0,0,1,6-5.85,5.87,5.87,0,0,1,5.89,5.85c5.75-5.18,10.4-6.25,15.2-6.51h1.5a6.85,6.85,0,1,1,.14,13.69Z"/><path class="cls-1" d="M216.17,165.71a27.91,27.91,0,0,1-27.52,27.52C173,193.23,160,180.6,160,165.71s13-27,28.62-27C203.57,138.72,216.17,150.82,216.17,165.71Zm-15.47.13c0-8.11-5.62-13.16-12.19-13.16-7.12,0-13,4.92-13,13.16s5.89,14.09,13,14.09C195.08,179.93,200.7,174,200.7,165.84Z"/><path class="cls-1" d="M222.66,205.59c3.42,0,4.38-2.13,4.38-12.23V147a7.66,7.66,0,0,1,7.67-7.58,7.78,7.78,0,0,1,7.8,7.58v47.86c0,19.68-6.84,24.07-18.62,24.07a26.69,26.69,0,0,1-7.53-.93,6.7,6.7,0,0,1-5.48-6.25c0-3.73,3.7-6.12,7.53-6.12Zm12.05-89.47a9,9,0,0,1,9.17,8.91,8.91,8.91,0,0,1-9.17,8.64,8.76,8.76,0,0,1-8.9-8.64A8.9,8.9,0,0,1,234.71,116.12Z"/><path class="cls-1" d="M269.67,170.49c0,8.91,8.9,10.24,12.87,10.24a28.31,28.31,0,0,0,10.13-1.86,7.68,7.68,0,0,1,4-1.2,6.28,6.28,0,0,1,6.3,6.12,6.35,6.35,0,0,1-3.42,5.32c-4.79,3.32-11,4.12-16.85,4.12-15.61,0-28.61-8.11-28.61-26.86,0-14.76,7.94-27.65,26.42-27.65,14.93,0,26.3,9.31,26.57,25.92a6,6,0,0,1-6,5.85Zm0-9.44H292c0-6.38-7.12-8.37-11.23-8.37S269.67,154.81,269.67,161.05Z"/><path class="cls-1" d="M343,152.68c-7.12,0-13,4.92-13,13.16s5.89,14.09,13,14.09c2.6,0,6.16,0,9.45-1.86a7.17,7.17,0,0,1,4.11-1.33,6.69,6.69,0,0,1,6.85,6.65,7,7,0,0,1-3.43,5.72c-4.79,3.32-10.95,4.12-16.84,4.12-15.61,0-28.62-12.63-28.62-27.52s13-27,28.62-27A36.7,36.7,0,0,1,358,141.64a7,7,0,0,1,3.56,5.85,6.82,6.82,0,0,1-7,6.78,9,9,0,0,1-2.74-.53C349.06,152.68,345.36,152.68,343,152.68Z"/><path class="cls-1" d="M398.53,193.23c-11.77,0-18.62-4.92-18.62-22.6V152.41h-4a6.85,6.85,0,1,1,0-13.69h4V124.63a7.66,7.66,0,0,1,7.67-7.58,7.78,7.78,0,0,1,7.8,7.58v14.09h6.44a6.85,6.85,0,1,1,0,13.69h-6.44V167.7c0,10.11.55,12.23,5.21,12.23h2.19a6.77,6.77,0,0,1,6.84,6.65,6.86,6.86,0,0,1-6.84,6.65Z"/><path class="cls-1" d="M69,274.88c0,8.91,8.9,10.24,12.87,10.24A28.28,28.28,0,0,0,92,283.26a7.68,7.68,0,0,1,4-1.2,6,6,0,0,1,2.88,11.43c-4.79,3.33-11,4.13-16.84,4.13-15.61,0-28.62-8.11-28.62-26.86,0-14.76,7.94-27.65,26.43-27.65,14.92,0,26.29,9.3,26.56,25.92a6,6,0,0,1-6,5.85Zm0-9.44H91.31c0-6.38-7.12-8.37-11.23-8.37S69,259.19,69,265.44Z"/><path class="cls-1" d="M144.44,243.11a17,17,0,0,1,13.69,7c4-6.11,10.54-7,15.88-7,11.23,0,18.35,10,18.35,22.6v23.66a7.78,7.78,0,0,1-7.8,7.58,7.66,7.66,0,0,1-7.67-7.58v-22.6c0-6.51-1.92-10-6.44-10a7.53,7.53,0,0,0-7.67,6.52,30.7,30.7,0,0,1,.14,3.59v22.46a7.78,7.78,0,0,1-7.8,7.58,7.66,7.66,0,0,1-7.67-7.58v-20.6c0-6.52-1.65-12-6.44-12-5.47,0-7.8,5.45-7.8,12v20.6A7.78,7.78,0,0,1,125.4,297a7.67,7.67,0,0,1-7.67-7.58V249.62a6,6,0,0,1,6-5.85,5.76,5.76,0,0,1,5.89,5.72C133.34,244.3,139.23,243.11,144.44,243.11Z"/><path class="cls-1" d="M207.08,229a7.65,7.65,0,0,1,7.67-7.58,7.77,7.77,0,0,1,7.8,7.58v20.2c4.93-5.71,12-6.11,14.66-6.11,15.06,0,26,12.1,26,27S252.54,297.62,238,297.62c-6.16,0-15.75-2.53-18.76-8.25L219,291.1a5.87,5.87,0,0,1-5.88,5.85,6,6,0,0,1-6-5.85Zm40.67,41.21c0-8-5.48-13.43-12.32-13.43s-12.88,5.32-12.88,13.43,5.89,14.09,12.88,14.09C242.27,284.32,247.75,278.07,247.75,270.23Z"/><path class="cls-1" d="M302,256.8c-9.73.53-11.64,5.85-11.64,12v20.6a7.78,7.78,0,0,1-7.81,7.58,7.67,7.67,0,0,1-7.67-7.58V249.62a6,6,0,0,1,6-5.85,5.87,5.87,0,0,1,5.89,5.85c5.75-5.18,10.4-6.25,15.2-6.51h1.5a6.85,6.85,0,1,1,.14,13.69Z"/><path class="cls-1" d="M358,289.37c-3,5.72-12.6,8.25-18.76,8.25C324.72,297.62,314,285,314,270.1s10.95-27,26-27A24.48,24.48,0,0,1,358,251.35l.28-1.73a5.87,5.87,0,0,1,5.88-5.85,6,6,0,0,1,6,5.85V291.1a6,6,0,0,1-6,5.85,5.87,5.87,0,0,1-5.88-5.85Zm-3.28-19.14c0-8.11-6-13.43-12.88-13.43s-12.32,5.45-12.32,13.43,5.48,14.09,12.32,14.09C348.82,284.32,354.71,278.34,354.71,270.23Z"/><path class="cls-1" d="M410.11,257.07c-7.12,0-13,4.92-13,13.16s5.89,14.09,13,14.09c2.6,0,6.16,0,9.45-1.86a7.15,7.15,0,0,1,4.11-1.33,6.68,6.68,0,0,1,6.84,6.65,7,7,0,0,1-3.42,5.71c-4.79,3.33-11,4.13-16.84,4.13-15.61,0-28.62-12.63-28.62-27.52s13-27,28.62-27A36.77,36.77,0,0,1,425,246a7,7,0,0,1,3.56,5.85,6.83,6.83,0,0,1-7,6.78,9,9,0,0,1-2.74-.53C416.13,257.07,412.44,257.07,410.11,257.07Z"/><path class="cls-1" d="M452.24,274.88c0,8.91,8.9,10.24,12.87,10.24a28.33,28.33,0,0,0,10.14-1.86,7.68,7.68,0,0,1,4-1.2,6,6,0,0,1,2.87,11.43c-4.79,3.33-10.95,4.13-16.84,4.13-15.61,0-28.62-8.11-28.62-26.86,0-14.76,7.95-27.65,26.43-27.65,14.93,0,26.29,9.3,26.57,25.92a6,6,0,0,1-6,5.85Zm0-9.44h22.32c0-6.38-7.12-8.37-11.23-8.37S452.24,259.19,452.24,265.44Z"/></svg>